
        <svg xmlns="http://www.w3.org/2000/svg" xmlns:xlink="http://www.w3.org/1999/xlink" version="1.1" width="3162.2638622533586" height="848.4556147264113" viewBox="0 0 3162.2638622533586 848.4556147264113">
			
			<g transform="scale(8.113193112667965) translate(10, 10)">
				<defs id="SvgjsDefs1027"/><g id="SvgjsG1028" featureKey="symbolFeature-0" transform="matrix(1.510308454530925,0,0,1.510308454530925,-21.144319803775335,-33.22678599968035)" fill="#000"><g xmlns="http://www.w3.org/2000/svg"><g><path d="M49.5,34.2c22.4,0,27.9,13.6,29.8,26.8c0.3,1.7,2.9,3.1,2.9,3.1H16.8c0,0,2.7-1.3,2.9-3.1C21.6,47.8,27.1,34.2,49.5,34.2     M49.5,32.2c-24.8,0-30.1,16.3-31.8,28.6c-0.1,0.3-1,1.1-1.8,1.6c-0.8,0.4-1.3,1.3-1,2.3c0.2,0.9,1,1.5,1.9,1.5h65.5    c0.9,0,1.7-0.6,1.9-1.5c0.2-0.9-0.2-1.8-1.1-2.2c-0.8-0.4-1.8-1.2-1.8-1.6C79.6,48.5,74.4,32.2,49.5,32.2L49.5,32.2z"/></g><g><path d="M29.5,49c-0.5,0-1.1-0.2-1.5-0.6c-0.8-0.8-0.7-2.1,0.1-2.8c2.4-2.3,5.3-4.3,8.4-5.9c1-0.5,2.2-0.1,2.7,0.8    c0.5,1,0.1,2.2-0.8,2.7c-2.8,1.5-5.3,3.2-7.5,5.3C30.4,48.9,29.9,49,29.5,49z"/></g><g><path d="M81.1,70.7c0.5,0.8,1.2,1.4,1.9,1.9V76H16v-3.4c0.6-0.5,1.3-1.1,1.9-1.9H81.1 M82.3,68.7H16.7c-0.5,1.3-2,2.4-2.7,2.9v0.2    V78h71v-6.2v-0.2C84.3,71.2,82.7,70.1,82.3,68.7L82.3,68.7z"/></g><g><rect x="47.5" y="24" width="4" height="6"/></g><g><path d="M55,26H44c-1.1,0-2-0.9-2-2s0.9-2,2-2h11c1.1,0,2,0.9,2,2S56.1,26,55,26z"/></g></g></g><g id="SvgjsG1029" featureKey="nameFeature-0" transform="matrix(0.6711652532640697,0,0,0.6711652532640697,125.27007132928556,7.688900251054358)" fill="#000"><path d="M30.449 41.4453 l-2.5781 0.82031 l-3.9844 -4.1992 c-2.207 1.5039 -4.9023 2.3047 -7.832 2.3047 c-7.5586 0 -13.477 -5.2344 -13.477 -14.004 c0 -8.75 5.918 -13.984 13.477 -13.984 c7.5 0 13.457 5.2344 13.457 13.984 c0 4.3164 -1.4453 7.7539 -3.7891 10.156 z M5.2734 26.367 c0 7.3633 4.8047 11.445 10.781 11.445 c5.957 0 10.723 -4.082 10.723 -11.445 c0 -7.2656 -4.7656 -11.328 -10.723 -11.328 c-5.9766 0 -10.781 4.0625 -10.781 11.328 z M49.11690625 40.37109 c-5.4688 0 -9.6484 -3.5156 -9.6484 -9.2188 l0 -18.398 l2.7148 0 l0 18.008 c0 4.6875 3.0078 7.0898 6.9336 7.0898 c3.9063 0 6.9922 -2.4219 6.9922 -7.0898 l0 -18.008 l2.6953 0 l0 18.398 c0 5.7031 -4.1992 9.2188 -9.6875 9.2188 z M70.421925 40 l0 -27.246 l2.7148 0 l0 27.246 l-2.7148 0 z M96.82453125 40.37109 c-7.5391 0 -13.438 -5.2344 -13.438 -14.004 c0 -8.75 5.8984 -13.984 13.438 -13.984 c5.1758 0 9.5703 2.5 11.758 6.875 l-2.4609 1.0938 c-1.8164 -3.4375 -5.2734 -5.3125 -9.2969 -5.3125 c-5.957 0 -10.742 4.0625 -10.742 11.328 c0 7.2852 4.7852 11.348 10.742 11.348 c4.0234 0 7.4805 -1.875 9.2969 -5.3125 l2.4609 1.0938 c-2.1875 4.375 -6.582 6.875 -11.758 6.875 z M133.59759375 40 l-10.273 -12.969 l-2.5195 0 l0 12.969 l-2.7148 0 l0 -27.246 l2.7148 0 l0 11.797 l2.5195 0 l9.7656 -11.797 l3.3398 0 l-10.762 12.969 l11.406 14.277 l-3.4766 0 z M170.9534375 40.37109 c-7.5391 0 -13.438 -5.2344 -13.438 -14.004 c0 -8.75 5.8984 -13.984 13.438 -13.984 c5.1758 0 9.5703 2.5 11.758 6.875 l-2.4609 1.0938 c-1.8164 -3.4375 -5.2734 -5.3125 -9.2969 -5.3125 c-5.957 0 -10.742 4.0625 -10.742 11.328 c0 7.2852 4.7852 11.348 10.742 11.348 c4.0234 0 7.4805 -1.875 9.2969 -5.3125 l2.4609 1.0938 c-2.1875 4.375 -6.582 6.875 -11.758 6.875 z M203.7425 40.37109 c-7.5391 0 -13.438 -5.2344 -13.438 -14.004 c0 -8.75 5.8984 -13.984 13.438 -13.984 c7.4805 0 13.418 5.2344 13.418 13.984 c0 8.7695 -5.9375 14.004 -13.418 14.004 z M203.7425 37.7539 c5.9375 0 10.684 -4.082 10.684 -11.387 c0 -7.2656 -4.7461 -11.328 -10.684 -11.328 c-5.957 0 -10.742 4.0625 -10.742 11.328 c0 7.3047 4.7852 11.387 10.742 11.387 z M245.63290625 12.754000000000001 l2.6758 0 l0 27.246 l-2.6563 0 l-15.605 -22.91 l0 22.91 l-2.6367 0 l0 -27.246 l2.6367 0 l15.586 22.813 l0 -22.813 z M278.7149375 12.754000000000001 l2.6758 0 l0 27.246 l-2.6563 0 l-15.605 -22.91 l0 22.91 l-2.6367 0 l0 -27.246 l2.6367 0 l15.586 22.813 l0 -22.813 z M307.79296875 15.254000000000001 l-11.406 0 l0 9.9023 l10.02 0 l0 2.4805 l-10.02 0 l0 9.8633 l11.406 0 l0 2.5 l-14.219 0 l0 -27.246 l14.219 0 l0 2.5 z M329.3128125 40.37109 c-7.5391 0 -13.438 -5.2344 -13.438 -14.004 c0 -8.75 5.8984 -13.984 13.438 -13.984 c5.1758 0 9.5703 2.5 11.758 6.875 l-2.4609 1.0938 c-1.8164 -3.4375 -5.2734 -5.3125 -9.2969 -5.3125 c-5.957 0 -10.742 4.0625 -10.742 11.328 c0 7.2852 4.7852 11.348 10.742 11.348 c4.0234 0 7.4805 -1.875 9.2969 -5.3125 l2.4609 1.0938 c-2.1875 4.375 -6.582 6.875 -11.758 6.875 z M364.288875 12.754000000000001 l0 2.5 l-7.168 0 l0 24.746 l-2.6953 0 l0 -24.746 l-7.168 0 l0 -2.5 l17.031 0 z"/></g><g id="SvgjsG1030" featureKey="sloganFeature-0" transform="matrix(0.9476064858973376,0,0,0.9476064858973376,126.028324156092,50.4291048852698)" fill="#000"><path d="M7.959 20.18555 c-3.9453 0 -6.9336 -2.7051 -6.9336 -7.1191 c0 -4.4434 3.0273 -7.1875 7.0313 -7.1875 c2.6172 0 4.8242 1.1523 6.0352 3.2617 l-2.0605 1.1035 c-0.82031 -1.5527 -2.2852 -2.2852 -3.9746 -2.2852 c-2.6465 0 -4.6777 1.8066 -4.6777 5.0586 c0 3.1836 1.9531 5.0977 4.7656 5.0977 c2.1289 0 3.8965 -1.1426 4.248 -3.5352 l-4.248 0 l0 -1.9238 l6.4844 0 l0 7.3438 l-1.8652 0 l0 -2.2656 c-0.91797 1.543 -2.5391 2.4512 -4.8047 2.4512 z M30.46335390625 8.154 l-5.4102 0 l0 3.8574 l4.7852 0 l0 2.0605 l-4.7852 0 l0 3.8379 l5.4102 0 l0 2.0898 l-7.7734 0 l0 -13.926 l7.7734 0 l0 2.0801 z M46.0536765625 6.074 l0 2.0801 l-3.4375 0 l0 11.846 l-2.3242 0 l0 -11.846 l-3.4473 0 l0 -2.0801 l9.209 0 z M68.68945625 6.074 c2.6172 0 4.2871 1.9629 4.2871 4.3848 c0 2.4609 -1.6699 4.3457 -4.2871 4.3457 l-3.2031 0 l0 5.1953 l-2.334 0 l0 -13.926 l5.5371 0 z M68.31835625 12.8125 c1.5625 0 2.3828 -0.95703 2.3828 -2.3828 c0 -1.377 -0.82031 -2.3828 -2.3828 -2.3828 l-2.832 0 l0 4.7656 l2.832 0 z M88.23483828125 8.154 l-5.4102 0 l0 3.8574 l4.7852 0 l0 2.0605 l-4.7852 0 l0 3.8379 l5.4102 0 l0 2.0898 l-7.7734 0 l0 -13.926 l7.7734 0 l0 2.0801 z M103.5908609375 20 l-3.6133 -6.2109 l-1.5039 0 l0 6.2109 l-2.334 0 l0 -13.926 l4.834 0 c3.0176 0 4.3457 1.8066 4.3457 4.043 c0 1.9434 -1.1523 3.252 -2.998 3.584 l4.0137 6.2988 l-2.7441 0 z M98.4736609375 8.047 l0 4.0137 l2.1582 0 c1.709 0 2.4414 -0.80078 2.4414 -1.9922 c0 -1.1816 -0.73242 -2.0215 -2.4414 -2.0215 l-2.1582 0 z M118.09712421875 20.18555 c-2.9492 0 -5.1563 -1.4063 -5.6055 -3.8672 l2.4023 -0.55664 c0.25391 1.6016 1.5723 2.4805 3.291 2.4805 c1.3574 0 2.5879 -0.57617 2.5684 -2.041 c-0.019531 -1.5234 -1.709 -1.9629 -3.5352 -2.4805 c-2.1094 -0.61523 -4.2773 -1.3184 -4.2773 -3.877 c0 -2.5977 2.1289 -3.9648 4.7754 -3.9648 c2.4414 0 4.7559 1.0254 5.293 3.5254 l-2.2559 0.56641 c-0.3125 -1.4844 -1.4648 -2.1387 -2.9199 -2.1387 c-1.2988 0 -2.5293 0.55664 -2.5293 1.9727 c0 1.2891 1.4746 1.6895 3.1641 2.1582 c2.1777 0.60547 4.6973 1.3477 4.6973 4.1406 c0 2.8809 -2.4121 4.082 -5.0684 4.082 z M136.949178125 20.18555 c-4.0039 0 -7.0313 -2.7441 -7.0313 -7.1582 c0 -4.4043 3.0273 -7.1484 7.0313 -7.1484 c3.9941 0 7.0215 2.7441 7.0215 7.1484 c0 4.4141 -3.0273 7.1582 -7.0215 7.1582 z M136.949178125 18.0176 c2.6367 0 4.6973 -1.8262 4.6973 -4.9902 c0 -3.1348 -2.0605 -4.9707 -4.6973 -4.9707 s-4.6973 1.8359 -4.6973 4.9707 c0 3.1641 2.0605 4.9902 4.6973 4.9902 z M161.15305078125 6.074 l2.334 0 l0 13.926 l-2.6172 0 l-6.8359 -10.625 l0 10.625 l-2.3145 0 l0 -13.926 l2.5879 0 l6.8457 10.557 l0 -10.557 z M181.3331953125 20 l-1.1035 -3.0957 l-6.084 0 l-1.0938 3.0957 l-2.4121 0 l5.127 -13.926 l2.8418 0 l5.127 13.926 l-2.4023 0 z M174.8583953125 14.9023 l4.668 0 l-2.334 -6.582 z M193.23196171875 17.9102 l4.5996 0 l0 2.0898 l-6.9336 0 l0 -13.926 l2.334 0 l0 11.836 z M206.253915625 20.19531 c-0.74219 0 -1.377 -0.61523 -1.377 -1.3672 s0.63477 -1.377 1.377 -1.377 c0.75195 0 1.377 0.625 1.377 1.377 s-0.625 1.3672 -1.377 1.3672 z"/></g>
			</g>
		</svg>
	